<svg width="64" height="1080" viewBox="0 0 64 1080" fill="none" xmlns="http://www.w3.org/2000/svg">
<circle cx="32" cy="32" r="32" transform="matrix(-1 0 0 1 64 -32)" fill="#D9D9D9" fill-opacity="0.65"/>
<circle cx="32" cy="32" r="32" transform="matrix(1 -8.11706e-08 -8.11706e-08 -1 7.62939e-06 1109)" fill="#D9D9D9" fill-opacity="0.65"/>
<circle cx="25" cy="25" r="25" transform="matrix(-1 0 0 1 57 70)" fill="#D9D9D9" fill-opacity="0.55"/>
<circle cx="25" cy="25" r="25" transform="matrix(1 -8.11706e-08 -8.11706e-08 -1 6.99999 1007)" fill="#D9D9D9" fill-opacity="0.55"/>
<ellipse cx="13" cy="13.5" rx="13" ry="13.5" transform="matrix(-1 0 0 1 45 235)" fill="#D9D9D9" fill-opacity="0.35"/>
<ellipse cx="13" cy="13.5" rx="13" ry="13.5" transform="matrix(1 -8.11706e-08 -8.11706e-08 -1 19 842)" fill="#D9D9D9" fill-opacity="0.35"/>
<ellipse cx="20" cy="19.5" rx="20" ry="19.5" transform="matrix(-1 0 0 1 52 158)" fill="#D9D9D9" fill-opacity="0.45"/>
<ellipse cx="20" cy="19.5" rx="20" ry="19.5" transform="matrix(1 -8.11706e-08 -8.11706e-08 -1 12 919)" fill="#D9D9D9" fill-opacity="0.45"/>
<ellipse cx="7" cy="8" rx="7" ry="8" transform="matrix(-1 0 0 1 39 300)" fill="#D9D9D9" fill-opacity="0.2"/>
<ellipse cx="7" cy="8" rx="7" ry="8" transform="matrix(1 -8.11706e-08 -8.11706e-08 -1 25 777)" fill="#D9D9D9" fill-opacity="0.2"/>
</svg>
